<svg width="334" height="100" viewBox="0 0 334 100" fill="none" xmlns="http://www.w3.org/2000/svg">
<rect x="2" y="2" width="330" height="96" rx="48" fill="#ACDBC4" stroke="black" stroke-width="3"/>
<rect x="12" y="11" width="150" height="78" rx="39" fill="black"/>
<g filter="url(#filter0_d_6_23)">
<path d="M49.7845 60H62.2645V58.26H51.6145V39H49.7845V60ZM66.6888 60H79.3788V58.29H68.5188V50.13H78.2688V48.45H68.5188V40.71H79.0488V39H66.6888V60ZM89.9501 60H91.7501V40.74H99.0101V39H82.7201V40.74H89.9501V60ZM102.974 43.35V44.49C104.594 44.13 105.854 42.3 105.854 40.17C105.854 38.58 105.014 37.59 103.814 37.59C102.824 37.59 102.164 38.28 102.164 39.12C102.164 39.99 102.824 40.65 103.694 40.65C103.964 40.65 104.234 40.59 104.474 40.47C104.564 41.76 103.994 42.87 102.974 43.35ZM118.029 60.39C122.589 60.39 125.469 58.17 125.469 54.66C125.469 51.66 123.429 49.8 118.119 48.57C113.709 47.58 112.149 46.29 112.149 44.19C112.149 41.88 114.129 40.35 117.519 40.35C121.029 40.35 123.159 42.03 123.309 45H125.109C124.959 40.95 122.139 38.61 117.519 38.61C113.049 38.61 110.319 40.83 110.319 44.19C110.319 47.34 112.509 49.08 117.669 50.28C121.899 51.21 123.609 52.5 123.609 54.69C123.609 57.12 121.479 58.65 118.029 58.65C114.399 58.65 111.969 56.85 111.789 53.76H109.989C110.139 57.81 113.229 60.39 118.029 60.39Z" fill="white"/>
</g>
<path d="M202.275 64.6C210.355 64.6 216.355 59.72 217.355 52.2H207.835C207.035 54.4 205.075 55.8 202.555 55.8C199.395 55.8 197.195 53.44 197.195 50C197.195 46.52 199.395 44.2 202.635 44.2C205.035 44.2 207.035 45.56 207.755 47.68H217.235C215.955 40.08 210.235 35.4 202.195 35.4C193.475 35.4 187.435 41.36 187.435 50C187.435 58.68 193.395 64.6 202.275 64.6ZM234.908 64.6C244.108 64.6 250.428 58.56 250.428 50C250.428 41.44 244.108 35.4 234.908 35.4C225.748 35.4 219.428 41.44 219.428 50C219.428 58.56 225.748 64.6 234.908 64.6ZM229.188 50C229.188 46.56 231.548 44.2 234.908 44.2C238.268 44.2 240.668 46.56 240.668 50C240.668 53.44 238.268 55.8 234.908 55.8C231.548 55.8 229.188 53.44 229.188 50ZM253.993 64H266.593C275.873 64 281.913 58.48 281.913 50C281.913 41.52 275.873 36 266.593 36H253.993V64ZM263.553 55.48V44.52H266.313C269.913 44.52 272.153 46.56 272.153 50C272.153 53.4 269.913 55.48 266.313 55.48H263.553ZM285.516 64H306.076V56.72H294.916V53.36H304.636V46.4H294.916V43.16H305.676V36H285.516V64Z" fill="black"/>
<defs>
<filter id="filter0_d_6_23" x="45.7845" y="37.59" width="83.6841" height="30.8" filterUnits="userSpaceOnUse" color-interpolation-filters="sRGB">
<feFlood flood-opacity="0" result="BackgroundImageFix"/>
<feColorMatrix in="SourceAlpha" type="matrix" values="0 0 0 0 0 0 0 0 0 0 0 0 0 0 0 0 0 0 127 0" result="hardAlpha"/>
<feOffset dy="4"/>
<feGaussianBlur stdDeviation="2"/>
<feComposite in2="hardAlpha" operator="out"/>
<feColorMatrix type="matrix" values="0 0 0 0 0 0 0 0 0 0 0 0 0 0 0 0 0 0 0.5 0"/>
<feBlend mode="normal" in2="BackgroundImageFix" result="effect1_dropShadow_6_23"/>
<feBlend mode="normal" in="SourceGraphic" in2="effect1_dropShadow_6_23" result="shape"/>
</filter>
</defs>
</svg>
